<svg width="719" height="252" viewBox="0 0 719 252" fill="none" xmlns="http://www.w3.org/2000/svg">
<path d="M519 174.164L540.458 185.034V106.709L619.81 159.22L698.352 106.709V185.034L719 173.535V76.6796L708.069 69.1316L619.81 131.278L529.931 69.1316L519 76.3579V174.164Z" fill="white"/>
<path fill-rule="evenodd" clip-rule="evenodd" d="M609.643 248.446L555.08 217.558V191.675L619.521 228.567L683.78 191.394V217.475L629.387 248.425C623.268 251.906 615.769 251.914 609.643 248.446ZM698.476 209.113L708.891 203.187C715.14 199.631 719 192.995 719 185.804V171.02L698.476 182.893V209.113ZM519 171.019L540.384 183.261V209.239L529.147 202.878C522.876 199.328 519 192.679 519 185.473V184.076V171.019Z" fill="white"/>
<path fill-rule="evenodd" clip-rule="evenodd" d="M685.642 68.3262L618.797 25.121L552.18 67.0944L531.595 52.6802L607.934 3.21549C614.544 -1.06774 623.053 -1.07216 629.668 3.20422L707.128 53.2814L685.642 68.3262ZM698.186 76.434L719 89.8872V71.8421C719 68.8134 718.315 65.8769 717.049 63.226L698.186 76.434ZM520.926 63.1505L538.694 75.5918L519 88.0004V71.7133C519 68.7049 519.676 65.7875 520.926 63.1505Z" fill="white"/>
<path d="M117.5 178.5L142 165V191L183.125 213.798C186.156 215.478 189.84 215.469 192.862 213.775L228.389 193.864C231.545 192.095 233.5 188.759 233.5 185.141V152.303C233.5 148.715 231.577 145.401 228.461 143.621L192.855 123.274C189.838 121.55 186.143 121.516 183.094 123.183L75.9318 181.802C72.8693 183.477 69.1549 183.435 66.132 181.689L4.99925 146.387C1.90566 144.6 0 141.299 0 137.727L0 69.9164C0 66.2675 1.98742 62.9083 5.18555 61.1516L66.1855 27.6446C69.1839 25.9976 72.8161 25.9976 75.8144 27.6446L136.814 61.1516C140.013 62.9083 142 66.2675 142 69.9164V96L114.5 111.5V88.0628C114.5 84.6038 112.712 81.3905 109.774 79.5664L76.1853 58.7185C73.0015 56.7423 68.98 56.712 65.7667 58.64L30.855 79.587C27.843 81.3942 26 84.6493 26 88.1619V121.838C26 125.351 27.843 128.606 30.855 130.413L66.1412 151.585C69.1553 153.393 72.8975 153.486 75.9979 151.83L183.286 94.5182C186.231 92.9447 189.768 92.9455 192.713 94.5202L254.715 127.674C257.969 129.414 260 132.803 260 136.493V205.112C260 208.746 258.029 212.094 254.851 213.856L192.004 248.724C188.904 250.444 185.125 250.394 182.071 248.592L122.419 213.402C119.371 211.604 117.5 208.328 117.5 204.789V178.5Z" fill="white"/>
<path d="M455 138L420 117.793V158.207L455 138ZM323 141.5H423.5V134.5H323V141.5Z" fill="white"/>
</svg>
