<svg width="700" height="700" viewBox="0 0 700 700" fill="none" xmlns="http://www.w3.org/2000/svg">
<rect width="100" height="100" rx="10" fill="white"/>
<rect x="150" width="100" height="100" rx="10" fill="white"/>
<rect x="300" width="100" height="100" rx="10" fill="white"/>
<rect x="450" width="100" height="100" rx="10" fill="white"/>
<rect x="600" width="100" height="100" rx="10" fill="white"/>
<rect y="150" width="100" height="100" rx="10" fill="white"/>
<rect x="150" y="150" width="100" height="100" rx="10" fill="white"/>
<rect x="300" y="150" width="100" height="100" rx="10" fill="white"/>
<rect x="450" y="150" width="100" height="100" rx="10" fill="white"/>
<rect x="600" y="150" width="100" height="100" rx="10" fill="white"/>
<rect y="300" width="100" height="100" rx="10" fill="white"/>
<rect x="150" y="300" width="100" height="100" rx="10" fill="white"/>
<rect x="300" y="300" width="100" height="100" rx="10" fill="white"/>
<rect x="450" y="300" width="100" height="100" rx="10" fill="white"/>
<rect x="600" y="300" width="100" height="100" rx="10" fill="white"/>
<rect y="450" width="100" height="100" rx="10" fill="white"/>
<rect x="150" y="450" width="100" height="100" rx="10" fill="white"/>
<rect x="300" y="450" width="100" height="100" rx="10" fill="white"/>
<rect x="450" y="450" width="100" height="100" rx="10" fill="white"/>
<rect x="600" y="450" width="100" height="100" rx="10" fill="white"/>
<rect y="600" width="100" height="100" rx="10" fill="white"/>
<rect x="150" y="600" width="100" height="100" rx="10" fill="white"/>
<rect x="300" y="600" width="100" height="100" rx="10" fill="white"/>
<rect x="450" y="600" width="100" height="100" rx="10" fill="white"/>
<rect x="600" y="600" width="100" height="100" rx="10" fill="white"/>
</svg>
