<svg width="416" height="414" viewBox="0 0 416 414" fill="none" xmlns="http://www.w3.org/2000/svg">
<path d="M110 71L196 121V221.5L110 172V71Z" fill="white"/>
<path d="M306 71L220 120.834V221L306 171.664V71Z" fill="white"/>
<path d="M122.5 49.5L208 0L293.5 49.5L208 99.5L122.5 49.5Z" fill="white"/>
<path d="M0 263L86 313V413.5L0 364V263Z" fill="white"/>
<path d="M196 263L110 312.834V413L196 363.664V263Z" fill="white"/>
<path d="M12.5 241.5L98 192L183.5 241.5L98 291.5L12.5 241.5Z" fill="white"/>
<path d="M220 263L306 313V413.5L220 364V263Z" fill="white"/>
<path d="M416 263L330 312.834V413L416 363.664V263Z" fill="white"/>
<path d="M232.5 241.5L318 192L403.5 241.5L318 291.5L232.5 241.5Z" fill="white"/>
</svg>
