<svg width="159" height="199" viewBox="0 0 159 199" fill="none" xmlns="http://www.w3.org/2000/svg">
<path d="M0 137.677L17.0587 146.319V84.0495L80.1438 125.796L142.585 84.0495V146.319L159 137.177V60.1765L150.31 54.1758L80.1438 103.582L8.69029 54.1758L0 59.9208V137.677Z" fill="white"/>
<path fill-rule="evenodd" clip-rule="evenodd" d="M0 135.177L17 144.909V165.561L9.0332 161.051C3.45068 157.891 0 151.972 0 145.557V135.177ZM28.6836 172.175V151.598L79.9141 180.927L131 151.375V172.109L89.7798 195.563C83.6611 199.045 76.1626 199.053 70.0361 195.585L28.6836 172.175ZM142.684 165.461L148.891 161.929C155.14 158.373 159 151.736 159 144.546V135.177L142.684 144.616V165.461Z" fill="white"/>
<path fill-rule="evenodd" clip-rule="evenodd" d="M132.48 53.5355L79.3389 19.1874L26.3784 52.5563L10.0127 41.097L68.4756 3.21546C75.0859 -1.06775 83.5947 -1.07214 90.2095 3.20423L149.562 41.5748L132.48 53.5355ZM142.453 59.9812L159 70.6765V58.5623C159 55.4806 158.29 52.4946 156.982 49.8076L142.453 59.9812ZM1.99658 49.7467L15.6567 59.3118L0 69.1765V58.4572C0 55.3926 0.702148 52.4222 1.99658 49.7467Z" fill="white"/>
</svg>
