<svg width="1023" height="676" viewBox="0 0 1023 676" fill="none" xmlns="http://www.w3.org/2000/svg">
<path d="M62 188L511.5 0L962 187.5L842 238.5L512 100L182 239L62 188Z" fill="white"/>
<path d="M277 265.5L512 164L745 265.5L512 365L277 265.5Z" fill="white"/>
<path fill-rule="evenodd" clip-rule="evenodd" d="M512.5 433L0.5 220V457.812C0.5 461.86 2.93994 465.508 6.68115 467.054L512 675.865L1016.82 467.055C1020.56 465.509 1023 461.861 1023 457.815V220L512.5 433ZM512.5 494L45 301V421.5L512.5 613.5L979 421.5V301L512.5 494Z" fill="white"/>
</svg>
