<svg width="1023" height="679" viewBox="0 0 1023 679" fill="none" xmlns="http://www.w3.org/2000/svg">
<path fill-rule="evenodd" clip-rule="evenodd" d="M1022 223L511.002 436.5L511 498.081L978.247 313V431.5L511.001 617.5V679L1009.65 472.612C1017.13 469.518 1022 462.224 1022 454.132V223Z" fill="white"/>
<path fill-rule="evenodd" clip-rule="evenodd" d="M-2.51276e-05 223L511 436.5L511 498.08L43.7546 313V431.5L511 617.5L511 679L12.3513 472.612C4.87516 469.518 -2.51276e-05 462.224 -2.51276e-05 454.132V223Z" fill="white"/>
<path d="M61 191L511 3L511.353 102.527L181 242L61 191Z" fill="white"/>
<path d="M960.847 190.552L511 3L511 102.5L840.847 241.552L960.847 190.552Z" fill="white"/>
<path d="M276 268.5L511.16 167L744 268.5L511.16 368L276 268.5Z" fill="white"/>
</svg>
